<?xml version="1.0" encoding="utf-8"?>
<!-- created with bpmn-js / http://bpmn.io -->
<!DOCTYPE svg PUBLIC "-//W3C//DTD SVG 1.1//EN" "http://www.w3.org/Graphics/SVG/1.1/DTD/svg11.dtd">
<svg xmlns="http://www.w3.org/2000/svg" xmlns:xlink="http://www.w3.org/1999/xlink" width="1264" height="522" viewBox="101 -205 1264 522" version="1.1"><defs><pattern id="djs-grid-pattern-36950" width="10" height="10" patternUnits="userSpaceOnUse"><circle cx="0.5" cy="0.5" r="0.5" style="fill: rgb(204, 204, 204);"/></pattern></defs><g class="djs-group"><g class="djs-element djs-shape" data-element-id="Participant_0o7y3w5" style="display: block;" transform="matrix(1 0 0 1 106 62)"><g class="djs-visual"><rect x="0" y="0" width="1254" height="250" rx="0" ry="0" style="stroke-linecap: round; stroke-linejoin: round; stroke: rgb(34, 36, 42); stroke-width: 1.5px; fill: white; fill-opacity: 0.95;"/><path style="fill: none; stroke-linecap: round; stroke-linejoin: round; stroke: rgb(34, 36, 42); stroke-width: 1.5px;" d="M30,0L30,250"/><text lineHeight="1.2" class="djs-label" style="font-family: Arial, sans-serif; font-size: 12px; font-weight: normal; fill: rgb(34, 36, 42);" transform="matrix(-1.83697e-16 -1 1 -1.83697e-16 0 250)"><tspan x="115.4970703125" y="18.6">loja</tspan></text></g><rect x="-5" y="-5" rx="4" width="1264" height="260" class="djs-outline" style="fill: none;"/><rect class="djs-hit djs-hit-no-move" x="0" y="0" width="1254" height="250" style="fill: none; stroke-opacity: 0; stroke: white; stroke-width: 15px;"/><rect class="djs-hit djs-hit-click-stroke" x="0" y="0" width="1254" height="250" style="fill: none; stroke-opacity: 0; stroke: white; stroke-width: 15px;"/><rect class="djs-hit djs-hit-all" x="0" y="0" width="30" height="250" style="fill: none; stroke-opacity: 0; stroke: white; stroke-width: 15px;"/></g><g class="djs-children"><g class="djs-group"><g class="djs-element djs-shape" data-element-id="StartEvent_118a96a" style="display: block;" transform="matrix(1 0 0 1 156 142)"><g class="djs-visual"><circle cx="18" cy="18" r="18" style="stroke-linecap: round; stroke-linejoin: round; stroke: rgb(34, 36, 42); stroke-width: 2px; fill: white; fill-opacity: 0.95;"/></g><rect class="djs-hit djs-hit-all" x="0" y="0" width="36" height="36" style="fill: none; stroke-opacity: 0; stroke: white; stroke-width: 15px;"/><circle cx="18" cy="18" r="23" class="djs-outline" style="fill: none;"/></g></g><g class="djs-group"><g class="djs-element djs-shape" data-element-id="Activity_15l6ipx" style="display: block;" transform="matrix(1 0 0 1 240 130)"><g class="djs-visual"><rect x="0" y="0" width="100" height="80" rx="10" ry="10" style="stroke-linecap: round; stroke-linejoin: round; stroke: rgb(34, 36, 42); stroke-width: 2px; fill: white; fill-opacity: 0.95;"/><text lineHeight="1.2" class="djs-label" style="font-family: Arial, sans-serif; font-size: 12px; font-weight: normal; fill: rgb(34, 36, 42);"><tspan x="14.15625" y="29.200000000000003">Preparar lista </tspan><tspan x="22.4912109375" y="43.6">de livros a </tspan><tspan x="27.9873046875" y="58">fornecer</tspan></text></g><rect class="djs-hit djs-hit-all" x="0" y="0" width="100" height="80" style="fill: none; stroke-opacity: 0; stroke: white; stroke-width: 15px;"/><rect x="-5" y="-5" rx="14" width="110" height="90" class="djs-outline" style="fill: none;"/></g></g><g class="djs-group"><g class="djs-element djs-shape" data-element-id="Event_0khe0f8" style="display: block;" transform="matrix(1 0 0 1 412 152)"><g class="djs-visual"><circle cx="18" cy="18" r="18" style="stroke-linecap: round; stroke-linejoin: round; stroke: rgb(34, 36, 42); stroke-width: 1.5px; fill: white; fill-opacity: 0.95;"/><circle cx="18" cy="18" r="15" style="stroke-linecap: round; stroke-linejoin: round; stroke: rgb(34, 36, 42); stroke-width: 1.5px; fill: none;"/><path d="m 8.459999999999999,11.34 l 0,12.6 l 18.900000000000002,0 l 0,-12.6 z l 9.450000000000001,5.4 l 9.450000000000001,-5.4" style="fill: rgb(34, 36, 42); stroke-linecap: round; stroke-linejoin: round; stroke: white; stroke-width: 1px;"/></g><rect class="djs-hit djs-hit-all" x="0" y="0" width="36" height="36" style="fill: none; stroke-opacity: 0; stroke: white; stroke-width: 15px;"/><circle cx="18" cy="18" r="23" class="djs-outline" style="fill: none;"/></g></g><g class="djs-group"><g class="djs-element djs-shape" data-element-id="Event_1ovgahk" style="display: block;" transform="matrix(1 0 0 1 862 182)"><g class="djs-visual"><circle cx="18" cy="18" r="18" style="stroke-linecap: round; stroke-linejoin: round; stroke: rgb(34, 36, 42); stroke-width: 1.5px; fill: white; fill-opacity: 0.95;"/><circle cx="18" cy="18" r="15" style="stroke-linecap: round; stroke-linejoin: round; stroke: rgb(34, 36, 42); stroke-width: 1.5px; fill: none;"/><path d="m 8.459999999999999,11.34 l 0,12.6 l 18.900000000000002,0 l 0,-12.6 z l 9.450000000000001,5.4 l 9.450000000000001,-5.4" style="fill: white; stroke-linecap: round; stroke-linejoin: round; stroke: rgb(34, 36, 42); stroke-width: 1px;"/></g><rect class="djs-hit djs-hit-all" x="0" y="0" width="36" height="36" style="fill: none; stroke-opacity: 0; stroke: white; stroke-width: 15px;"/><circle cx="18" cy="18" r="23" class="djs-outline" style="fill: none;"/></g></g><g class="djs-group"><g class="djs-element djs-shape" data-element-id="Event_1nka0cq" style="display: block;" transform="matrix(1 0 0 1 1172 182)"><g class="djs-visual"><circle cx="18" cy="18" r="18" style="stroke-linecap: round; stroke-linejoin: round; stroke: rgb(34, 36, 42); stroke-width: 4px; fill: white; fill-opacity: 0.95;"/></g><rect class="djs-hit djs-hit-all" x="0" y="0" width="36" height="36" style="fill: none; stroke-opacity: 0; stroke: white; stroke-width: 15px;"/><circle cx="18" cy="18" r="24" class="djs-outline" style="fill: none;"/></g></g><g class="djs-group"><g class="djs-element djs-shape" data-element-id="Activity_078ydnp" style="display: block;" transform="matrix(1 0 0 1 980 160)"><g class="djs-visual"><rect x="0" y="0" width="100" height="80" rx="10" ry="10" style="stroke-linecap: round; stroke-linejoin: round; stroke: rgb(34, 36, 42); stroke-width: 2px; fill: white; fill-opacity: 0.95;"/><text lineHeight="1.2" class="djs-label" style="font-family: Arial, sans-serif; font-size: 12px; font-weight: normal; fill: rgb(34, 36, 42);"><tspan x="33.4873046875" y="43.599999999999994">Pegar</tspan></text></g><rect class="djs-hit djs-hit-all" x="0" y="0" width="100" height="80" style="fill: none; stroke-opacity: 0; stroke: white; stroke-width: 15px;"/><rect x="-5" y="-5" rx="14" width="110" height="90" class="djs-outline" style="fill: none;"/></g></g><g class="djs-group"><g class="djs-element djs-connection" data-element-id="Flow_0ug9yt5" style="display: block;"><g class="djs-visual"><defs><marker id="marker-8c7ypjpd3ym9jt5bh4lprodtl" viewBox="0 0 20 20" refX="11" refY="10" markerWidth="10" markerHeight="10" orient="auto"><path d="M 1 5 L 11 10 L 1 15 Z" style="stroke-linecap: round; stroke-linejoin: round; stroke: rgb(34, 36, 42); stroke-width: 1px; fill: rgb(34, 36, 42);"/></marker></defs><path data-corner-radius="5" style="fill: none; stroke-linecap: round; stroke-linejoin: round; stroke: rgb(34, 36, 42); stroke-width: 2px; marker-end: url('#marker-8c7ypjpd3ym9jt5bh4lprodtl');" d="M192,160L211,160C213.5,160,216,162.5,216,165L216,165C216,167.5,218.5,170,221,170L240,170"/></g><path d="M192,160L216,160L216,170L240,170" class="djs-hit djs-hit-stroke" style="fill: none; stroke-opacity: 0; stroke: white; stroke-width: 15px;"/><rect x="187" y="155" rx="4" width="58" height="20" class="djs-outline" style="fill: none;"/></g></g><g class="djs-group"><g class="djs-element djs-connection" data-element-id="Flow_1v1thf1" style="display: block;"><g class="djs-visual"><defs><marker id="marker-d39lrkh78ou7imnhata2qkmoq" viewBox="0 0 20 20" refX="11" refY="10" markerWidth="10" markerHeight="10" orient="auto"><path d="M 1 5 L 11 10 L 1 15 Z" style="stroke-linecap: round; stroke-linejoin: round; stroke: rgb(34, 36, 42); stroke-width: 1px; fill: rgb(34, 36, 42);"/></marker></defs><path data-corner-radius="5" style="fill: none; stroke-linecap: round; stroke-linejoin: round; stroke: rgb(34, 36, 42); stroke-width: 2px; marker-end: url('#marker-d39lrkh78ou7imnhata2qkmoq');" d="M340,170L412,170"/></g><path d="M340,170L412,170" class="djs-hit djs-hit-stroke" style="fill: none; stroke-opacity: 0; stroke: white; stroke-width: 15px;"/><rect x="335" y="165" rx="4" width="82" height="10" class="djs-outline" style="fill: none;"/></g></g><g class="djs-group"><g class="djs-element djs-connection" data-element-id="Flow_1hmigk9" style="display: block;"><g class="djs-visual"><defs><marker id="marker-00rjjxshv7ngdkrjddgpnwp7f" viewBox="0 0 20 20" refX="11" refY="10" markerWidth="10" markerHeight="10" orient="auto"><path d="M 1 5 L 11 10 L 1 15 Z" style="stroke-linecap: round; stroke-linejoin: round; stroke: rgb(34, 36, 42); stroke-width: 1px; fill: rgb(34, 36, 42);"/></marker></defs><path data-corner-radius="5" style="fill: none; stroke-linecap: round; stroke-linejoin: round; stroke: rgb(34, 36, 42); stroke-width: 2px; marker-end: url('#marker-00rjjxshv7ngdkrjddgpnwp7f');" d="M898,200L980,200"/></g><path d="M898,200L980,200" class="djs-hit djs-hit-stroke" style="fill: none; stroke-opacity: 0; stroke: white; stroke-width: 15px;"/><rect x="893" y="195" rx="4" width="92" height="10" class="djs-outline" style="fill: none;"/></g></g><g class="djs-group"><g class="djs-element djs-connection" data-element-id="Flow_1r4tyjm" style="display: block;"><g class="djs-visual"><defs><marker id="marker-afols6o4hoske2zcndcf4w4ne" viewBox="0 0 20 20" refX="11" refY="10" markerWidth="10" markerHeight="10" orient="auto"><path d="M 1 5 L 11 10 L 1 15 Z" style="stroke-linecap: round; stroke-linejoin: round; stroke: rgb(34, 36, 42); stroke-width: 1px; fill: rgb(34, 36, 42);"/></marker></defs><path data-corner-radius="5" style="fill: none; stroke-linecap: round; stroke-linejoin: round; stroke: rgb(34, 36, 42); stroke-width: 2px; marker-end: url('#marker-afols6o4hoske2zcndcf4w4ne');" d="M1080,200L1172,200"/></g><path d="M1080,200L1172,200" class="djs-hit djs-hit-stroke" style="fill: none; stroke-opacity: 0; stroke: white; stroke-width: 15px;"/><rect x="1075" y="195" rx="4" width="102" height="10" class="djs-outline" style="fill: none;"/></g></g></g></g><g class="djs-group"><g class="djs-element djs-shape" data-element-id="Participant_0dx2hxs" style="display: block;" transform="matrix(1 0 0 1 106 -190)"><g class="djs-visual"><rect x="0" y="0" width="1254" height="250" rx="0" ry="0" style="stroke-linecap: round; stroke-linejoin: round; stroke: rgb(34, 36, 42); stroke-width: 1.5px; fill: white; fill-opacity: 0.95;"/><path style="fill: none; stroke-linecap: round; stroke-linejoin: round; stroke: rgb(34, 36, 42); stroke-width: 1.5px;" d="M30,0L30,250"/><text lineHeight="1.2" class="djs-label" style="font-family: Arial, sans-serif; font-size: 12px; font-weight: normal; fill: rgb(34, 36, 42);" transform="matrix(-1.83697e-16 -1 1 -1.83697e-16 0 250)"><tspan x="96.3134765625" y="18.6">fornecedor</tspan></text></g><rect x="-5" y="-5" rx="4" width="1264" height="260" class="djs-outline" style="fill: none;"/><rect class="djs-hit djs-hit-no-move" x="0" y="0" width="1254" height="250" style="fill: none; stroke-opacity: 0; stroke: white; stroke-width: 15px;"/><rect class="djs-hit djs-hit-click-stroke" x="0" y="0" width="1254" height="250" style="fill: none; stroke-opacity: 0; stroke: white; stroke-width: 15px;"/><rect class="djs-hit djs-hit-all" x="0" y="0" width="30" height="250" style="fill: none; stroke-opacity: 0; stroke: white; stroke-width: 15px;"/></g><g class="djs-children"><g class="djs-group"><g class="djs-element djs-shape" data-element-id="Event_0qjwp2o" style="display: block;" transform="matrix(1 0 0 1 412 -78)"><g class="djs-visual"><circle cx="18" cy="18" r="18" style="stroke-linecap: round; stroke-linejoin: round; stroke: rgb(34, 36, 42); stroke-width: 1.5px; fill: white; fill-opacity: 0.95;"/><circle cx="18" cy="18" r="15" style="stroke-linecap: round; stroke-linejoin: round; stroke: rgb(34, 36, 42); stroke-width: 1.5px; fill: none;"/><path d="m 8.459999999999999,11.34 l 0,12.6 l 18.900000000000002,0 l 0,-12.6 z l 9.450000000000001,5.4 l 9.450000000000001,-5.4" style="fill: white; stroke-linecap: round; stroke-linejoin: round; stroke: rgb(34, 36, 42); stroke-width: 1px;"/></g><rect class="djs-hit djs-hit-all" x="0" y="0" width="36" height="36" style="fill: none; stroke-opacity: 0; stroke: white; stroke-width: 15px;"/><circle cx="18" cy="18" r="23" class="djs-outline" style="fill: none;"/></g></g><g class="djs-group"><g class="djs-element djs-shape" data-element-id="Activity_0m4tn2s" style="display: block;" transform="matrix(1 0 0 1 500 -100)"><g class="djs-visual"><rect x="0" y="0" width="100" height="80" rx="10" ry="10" style="stroke-linecap: round; stroke-linejoin: round; stroke: rgb(34, 36, 42); stroke-width: 2px; fill: white; fill-opacity: 0.95;"/><text lineHeight="1.2" class="djs-label" style="font-family: Arial, sans-serif; font-size: 12px; font-weight: normal; fill: rgb(34, 36, 42);"><tspan x="17.65625" y="36.4">Reservar os </tspan><tspan x="35.9921875" y="50.8">livros</tspan></text></g><rect class="djs-hit djs-hit-all" x="0" y="0" width="100" height="80" style="fill: none; stroke-opacity: 0; stroke: white; stroke-width: 15px;"/><rect x="-5" y="-5" rx="14" width="110" height="90" class="djs-outline" style="fill: none;"/></g></g><g class="djs-group"><g class="djs-element djs-shape" data-element-id="Activity_0bq5ort" style="display: block;" transform="matrix(1 0 0 1 700 -50)"><g class="djs-visual"><rect x="0" y="0" width="100" height="80" rx="10" ry="10" style="stroke-linecap: round; stroke-linejoin: round; stroke: rgb(34, 36, 42); stroke-width: 2px; fill: white; fill-opacity: 0.95;"/><text lineHeight="1.2" class="djs-label" style="font-family: Arial, sans-serif; font-size: 12px; font-weight: normal; fill: rgb(34, 36, 42);"><tspan x="21.4892578125" y="36.4">Preparar a </tspan><tspan x="34.994140625" y="50.8">fatura</tspan></text></g><rect class="djs-hit djs-hit-all" x="0" y="0" width="100" height="80" style="fill: none; stroke-opacity: 0; stroke: white; stroke-width: 15px;"/><rect x="-5" y="-5" rx="14" width="110" height="90" class="djs-outline" style="fill: none;"/></g></g><g class="djs-group"><g class="djs-element djs-shape" data-element-id="Event_0qe3t1x" style="display: block;" transform="matrix(1 0 0 1 852 -28)"><g class="djs-visual"><circle cx="18" cy="18" r="18" style="stroke-linecap: round; stroke-linejoin: round; stroke: rgb(34, 36, 42); stroke-width: 1.5px; fill: white; fill-opacity: 0.95;"/><circle cx="18" cy="18" r="15" style="stroke-linecap: round; stroke-linejoin: round; stroke: rgb(34, 36, 42); stroke-width: 1.5px; fill: none;"/><path d="m 8.459999999999999,11.34 l 0,12.6 l 18.900000000000002,0 l 0,-12.6 z l 9.450000000000001,5.4 l 9.450000000000001,-5.4" style="fill: rgb(34, 36, 42); stroke-linecap: round; stroke-linejoin: round; stroke: white; stroke-width: 1px;"/></g><rect class="djs-hit djs-hit-all" x="0" y="0" width="36" height="36" style="fill: none; stroke-opacity: 0; stroke: white; stroke-width: 15px;"/><circle cx="18" cy="18" r="23" class="djs-outline" style="fill: none;"/></g></g><g class="djs-group"><g class="djs-element djs-shape" data-element-id="Activity_0yu325w" style="display: block;" transform="matrix(1 0 0 1 1100 -170)"><g class="djs-visual"><rect x="0" y="0" width="100" height="80" rx="10" ry="10" style="stroke-linecap: round; stroke-linejoin: round; stroke: rgb(34, 36, 42); stroke-width: 2px; fill: white; fill-opacity: 0.95;"/><text lineHeight="1.2" class="djs-label" style="font-family: Arial, sans-serif; font-size: 12px; font-weight: normal; fill: rgb(34, 36, 42);"><tspan x="21.8203125" y="36.4">Entregar o </tspan><tspan x="31.8193359375" y="50.8">pedido</tspan></text></g><rect class="djs-hit djs-hit-all" x="0" y="0" width="100" height="80" style="fill: none; stroke-opacity: 0; stroke: white; stroke-width: 15px;"/><rect x="-5" y="-5" rx="14" width="110" height="90" class="djs-outline" style="fill: none;"/></g></g><g class="djs-group"><g class="djs-element djs-shape" data-element-id="Event_0kmqy6l" style="display: block;" transform="matrix(1 0 0 1 1272 -148)"><g class="djs-visual"><circle cx="18" cy="18" r="18" style="stroke-linecap: round; stroke-linejoin: round; stroke: rgb(34, 36, 42); stroke-width: 4px; fill: white; fill-opacity: 0.95;"/><circle cx="18" cy="18" r="10" style="stroke-linecap: round; stroke-linejoin: round; stroke: rgb(34, 36, 42); stroke-width: 4px; fill: rgb(34, 36, 42);"/></g><rect class="djs-hit djs-hit-all" x="0" y="0" width="36" height="36" style="fill: none; stroke-opacity: 0; stroke: white; stroke-width: 15px;"/><circle cx="18" cy="18" r="24" class="djs-outline" style="fill: none;"/></g></g><g class="djs-group"><g class="djs-element djs-shape" data-element-id="Gateway_1w99kd2" style="display: block;" transform="matrix(1 0 0 1 625 -95)"><g class="djs-visual"><polygon points="25,0 50,25 25,50 0,25" style="stroke-linecap: round; stroke-linejoin: round; stroke: rgb(34, 36, 42); stroke-width: 2px; fill: white; fill-opacity: 0.95;"/><path d="m 23,10 0,12.5 -12.5,0 0,5 12.5,0 0,12.5 5,0 0,-12.5 12.5,0 0,-5 -12.5,0 0,-12.5 -5,0 z" style="fill: rgb(34, 36, 42); stroke-linecap: round; stroke-linejoin: round; stroke: rgb(34, 36, 42); stroke-width: 1px;"/></g><rect class="djs-hit djs-hit-all" x="0" y="0" width="50" height="50" style="fill: none; stroke-opacity: 0; stroke: white; stroke-width: 15px;"/><rect x="2" y="2" rx="4" width="46" height="46" class="djs-outline" style="transform-box: fill-box; transform: rotate(45deg); transform-origin: center center; fill: none;"/></g></g><g class="djs-group"><g class="djs-element djs-shape" data-element-id="Activity_0l2w35c" style="display: block;" transform="matrix(1 0 0 1 700 -170)"><g class="djs-visual"><rect x="0" y="0" width="100" height="80" rx="10" ry="10" style="stroke-linecap: round; stroke-linejoin: round; stroke: rgb(34, 36, 42); stroke-width: 2px; fill: white; fill-opacity: 0.95;"/><text lineHeight="1.2" class="djs-label" style="font-family: Arial, sans-serif; font-size: 12px; font-weight: normal; fill: rgb(34, 36, 42);"><tspan x="21.4892578125" y="36.4">Preparar o </tspan><tspan x="31.8193359375" y="50.8">pedido</tspan></text></g><rect class="djs-hit djs-hit-all" x="0" y="0" width="100" height="80" style="fill: none; stroke-opacity: 0; stroke: white; stroke-width: 15px;"/><rect x="-5" y="-5" rx="14" width="110" height="90" class="djs-outline" style="fill: none;"/></g></g><g class="djs-group"><g class="djs-element djs-connection" data-element-id="Flow_1b29x8u" style="display: block;"><g class="djs-visual"><defs><marker id="marker-1o4xvc64639illc6ugu8uzuj4" viewBox="0 0 20 20" refX="11" refY="10" markerWidth="10" markerHeight="10" orient="auto"><path d="M 1 5 L 11 10 L 1 15 Z" style="stroke-linecap: round; stroke-linejoin: round; stroke: rgb(34, 36, 42); stroke-width: 1px; fill: rgb(34, 36, 42);"/></marker></defs><path data-corner-radius="5" style="fill: none; stroke-linecap: round; stroke-linejoin: round; stroke: rgb(34, 36, 42); stroke-width: 2px; marker-end: url('#marker-1o4xvc64639illc6ugu8uzuj4');" d="M448,-60L500,-60"/></g><path d="M448,-60L500,-60" class="djs-hit djs-hit-stroke" style="fill: none; stroke-opacity: 0; stroke: white; stroke-width: 15px;"/><rect x="443" y="-65" rx="4" width="62" height="10" class="djs-outline" style="fill: none;"/></g></g><g class="djs-group"><g class="djs-element djs-connection" data-element-id="Flow_05t9sms" style="display: block;"><g class="djs-visual"><defs><marker id="marker-dg118wstukzy42u7lvhnmiztj" viewBox="0 0 20 20" refX="11" refY="10" markerWidth="10" markerHeight="10" orient="auto"><path d="M 1 5 L 11 10 L 1 15 Z" style="stroke-linecap: round; stroke-linejoin: round; stroke: rgb(34, 36, 42); stroke-width: 1px; fill: rgb(34, 36, 42);"/></marker></defs><path data-corner-radius="5" style="fill: none; stroke-linecap: round; stroke-linejoin: round; stroke: rgb(34, 36, 42); stroke-width: 2px; marker-end: url('#marker-dg118wstukzy42u7lvhnmiztj');" d="M600,-60L608,-60C610.5,-60,613,-62.5,613,-65L613,-65C613,-67.5,615.5,-70,618,-70L625,-70"/></g><path d="M600,-60L613,-60L613,-70L625,-70" class="djs-hit djs-hit-stroke" style="fill: none; stroke-opacity: 0; stroke: white; stroke-width: 15px;"/><rect x="595" y="-75" rx="4" width="35" height="20" class="djs-outline" style="fill: none;"/></g></g><g class="djs-group"><g class="djs-element djs-connection" data-element-id="Flow_0d053b8" style="display: block;"><g class="djs-visual"><defs><marker id="marker-8jsfan1yjjr5uko32fcpp7gq0" viewBox="0 0 20 20" refX="11" refY="10" markerWidth="10" markerHeight="10" orient="auto"><path d="M 1 5 L 11 10 L 1 15 Z" style="stroke-linecap: round; stroke-linejoin: round; stroke: rgb(34, 36, 42); stroke-width: 1px; fill: rgb(34, 36, 42);"/></marker></defs><path data-corner-radius="5" style="fill: none; stroke-linecap: round; stroke-linejoin: round; stroke: rgb(34, 36, 42); stroke-width: 2px; marker-end: url('#marker-8jsfan1yjjr5uko32fcpp7gq0');" d="M650,-45L650,-15C650,-12.5,652.5,-10,655,-10L700,-10"/></g><path d="M650,-45L650,-10L700,-10" class="djs-hit djs-hit-stroke" style="fill: none; stroke-opacity: 0; stroke: white; stroke-width: 15px;"/><rect x="645" y="-50" rx="4" width="60" height="45" class="djs-outline" style="fill: none;"/></g></g><g class="djs-group"><g class="djs-element djs-connection" data-element-id="Flow_1957ymo" style="display: block;"><g class="djs-visual"><defs><marker id="marker-augswc992jja3nats15t2hgxv" viewBox="0 0 20 20" refX="11" refY="10" markerWidth="10" markerHeight="10" orient="auto"><path d="M 1 5 L 11 10 L 1 15 Z" style="stroke-linecap: round; stroke-linejoin: round; stroke: rgb(34, 36, 42); stroke-width: 1px; fill: rgb(34, 36, 42);"/></marker></defs><path data-corner-radius="5" style="fill: none; stroke-linecap: round; stroke-linejoin: round; stroke: rgb(34, 36, 42); stroke-width: 2px; marker-end: url('#marker-augswc992jja3nats15t2hgxv');" d="M800,-10L852,-10"/></g><path d="M800,-10L852,-10" class="djs-hit djs-hit-stroke" style="fill: none; stroke-opacity: 0; stroke: white; stroke-width: 15px;"/><rect x="795" y="-15" rx="4" width="62" height="10" class="djs-outline" style="fill: none;"/></g></g><g class="djs-group"><g class="djs-element djs-connection" data-element-id="Flow_03fbeox" style="display: block;"><g class="djs-visual"><defs><marker id="marker-cj6gqv9arvtb4oyv5wsngof78" viewBox="0 0 20 20" refX="11" refY="10" markerWidth="10" markerHeight="10" orient="auto"><path d="M 1 5 L 11 10 L 1 15 Z" style="stroke-linecap: round; stroke-linejoin: round; stroke: rgb(34, 36, 42); stroke-width: 1px; fill: rgb(34, 36, 42);"/></marker><marker id="marker-5a5ey60ekiw5mec21cyryw5as" viewBox="0 0 20 20" refX="-1" refY="10" markerWidth="10" markerHeight="10" orient="auto"><path d="M 0 10 L 8 6 L 16 10 L 8 14 Z" style="stroke-linecap: round; stroke-linejoin: round; stroke: rgb(34, 36, 42); stroke-width: 2px; fill: white;"/></marker></defs><path data-corner-radius="5" style="fill: none; stroke-linecap: round; stroke-linejoin: round; stroke: rgb(34, 36, 42); stroke-width: 2px; marker-end: url('#marker-cj6gqv9arvtb4oyv5wsngof78'); marker-start: url('#marker-5a5ey60ekiw5mec21cyryw5as');" d="M800,-130L1100,-130"/></g><path d="M800,-130L1100,-130" class="djs-hit djs-hit-stroke" style="fill: none; stroke-opacity: 0; stroke: white; stroke-width: 15px;"/><rect x="795" y="-135" rx="4" width="310" height="10" class="djs-outline" style="fill: none;"/></g></g><g class="djs-group"><g class="djs-element djs-connection" data-element-id="Flow_1f3mott" style="display: block;"><g class="djs-visual"><defs><marker id="marker-55kvy0es5hmt6wswga047ddvf" viewBox="0 0 20 20" refX="11" refY="10" markerWidth="10" markerHeight="10" orient="auto"><path d="M 1 5 L 11 10 L 1 15 Z" style="stroke-linecap: round; stroke-linejoin: round; stroke: rgb(34, 36, 42); stroke-width: 1px; fill: rgb(34, 36, 42);"/></marker></defs><path data-corner-radius="5" style="fill: none; stroke-linecap: round; stroke-linejoin: round; stroke: rgb(34, 36, 42); stroke-width: 2px; marker-end: url('#marker-55kvy0es5hmt6wswga047ddvf');" d="M1200,-130L1272,-130"/></g><path d="M1200,-130L1272,-130" class="djs-hit djs-hit-stroke" style="fill: none; stroke-opacity: 0; stroke: white; stroke-width: 15px;"/><rect x="1195" y="-135" rx="4" width="82" height="10" class="djs-outline" style="fill: none;"/></g></g><g class="djs-group"><g class="djs-element djs-connection" data-element-id="Flow_02j7q7h" style="display: block;"><g class="djs-visual"><defs><marker id="marker-1dfga49o5mgu3e19ysx3b2kvz" viewBox="0 0 20 20" refX="11" refY="10" markerWidth="10" markerHeight="10" orient="auto"><path d="M 1 5 L 11 10 L 1 15 Z" style="stroke-linecap: round; stroke-linejoin: round; stroke: rgb(34, 36, 42); stroke-width: 1px; fill: rgb(34, 36, 42);"/></marker></defs><path data-corner-radius="5" style="fill: none; stroke-linecap: round; stroke-linejoin: round; stroke: rgb(34, 36, 42); stroke-width: 2px; marker-end: url('#marker-1dfga49o5mgu3e19ysx3b2kvz');" d="M650,-95L650,-125C650,-127.5,652.5,-130,655,-130L700,-130"/></g><path d="M650,-95L650,-130L700,-130" class="djs-hit djs-hit-stroke" style="fill: none; stroke-opacity: 0; stroke: white; stroke-width: 15px;"/><rect x="645" y="-135" rx="4" width="60" height="45" class="djs-outline" style="fill: none;"/></g></g></g></g><g class="djs-group"><g class="djs-element djs-connection" data-element-id="Association_1ak7nxk" style="display: block;"><g class="djs-visual"><path data-corner-radius="5" style="fill: none; stroke-linecap: round; stroke-linejoin: round; stroke: rgb(34, 36, 42); stroke-width: 2px; stroke-dasharray: 0, 5;" d="M441,156L488,100"/></g><path d="M441,156L488,100" class="djs-hit djs-hit-stroke" style="fill: none; stroke-opacity: 0; stroke: white; stroke-width: 15px;"/><rect x="436" y="95" rx="4" width="57" height="66" class="djs-outline" style="fill: none;"/></g></g><g class="djs-group"><g class="djs-element djs-connection" data-element-id="Association_1jx0sq2" style="display: block;"><g class="djs-visual"><path data-corner-radius="5" style="fill: none; stroke-linecap: round; stroke-linejoin: round; stroke: rgb(34, 36, 42); stroke-width: 2px; stroke-dasharray: 0, 5;" d="M887,-17L921,-30"/></g><path d="M887,-17L921,-30" class="djs-hit djs-hit-stroke" style="fill: none; stroke-opacity: 0; stroke: white; stroke-width: 15px;"/><rect x="882" y="-35" rx="4" width="44" height="23" class="djs-outline" style="fill: none;"/></g></g><g class="djs-group"><g class="djs-element djs-connection" data-element-id="Association_16maoqc" style="display: block;"><g class="djs-visual"><path data-corner-radius="5" style="fill: none; stroke-linecap: round; stroke-linejoin: round; stroke: rgb(34, 36, 42); stroke-width: 2px; stroke-dasharray: 0, 5;" d="M950,-130L1003,-159"/></g><path d="M950,-130L1003,-159" class="djs-hit djs-hit-stroke" style="fill: none; stroke-opacity: 0; stroke: white; stroke-width: 15px;"/><rect x="945" y="-164" rx="4" width="63" height="39" class="djs-outline" style="fill: none;"/></g></g><g class="djs-group"><g class="djs-element djs-connection" data-element-id="Flow_105gnre" style="display: block;"><g class="djs-visual"><defs><marker id="marker-cna82zvn3kf123engc7jaji1j" viewBox="0 0 20 20" refX="8.5" refY="5" markerWidth="20" markerHeight="20" orient="auto"><path d="m 1 5 l 0 -3 l 7 3 l -7 3 z" style="stroke-linecap: round; stroke-linejoin: round; stroke: rgb(34, 36, 42); stroke-width: 1px; fill: white; stroke-dasharray: 10000, 1;"/></marker><marker id="marker-88yd6hkpownfq3vxoby76yuq8" viewBox="0 0 20 20" refX="6" refY="6" markerWidth="20" markerHeight="20" orient="auto"><circle cx="6" cy="6" r="3.5" style="stroke-linecap: round; stroke-linejoin: round; stroke: rgb(34, 36, 42); stroke-width: 1px; fill: white; stroke-dasharray: 10000, 1;"/></marker></defs><path data-corner-radius="5" style="fill: none; stroke-linecap: round; stroke-linejoin: round; stroke: rgb(34, 36, 42); stroke-width: 1.5px; marker-end: url('#marker-cna82zvn3kf123engc7jaji1j'); marker-start: url('#marker-88yd6hkpownfq3vxoby76yuq8'); stroke-dasharray: 10, 11;" d="M430,152L430,-42"/></g><path d="M430,152L430,-42" class="djs-hit djs-hit-stroke" style="fill: none; stroke-opacity: 0; stroke: white; stroke-width: 15px;"/><rect x="425" y="-47" rx="4" width="10" height="204" class="djs-outline" style="fill: none;"/></g></g><g class="djs-group"><g class="djs-element djs-connection" data-element-id="Flow_1kyjv8j" style="display: block;"><g class="djs-visual"><defs><marker id="marker-555fmvp7z08flybiln6jwmjc9" viewBox="0 0 20 20" refX="8.5" refY="5" markerWidth="20" markerHeight="20" orient="auto"><path d="m 1 5 l 0 -3 l 7 3 l -7 3 z" style="stroke-linecap: round; stroke-linejoin: round; stroke: rgb(34, 36, 42); stroke-width: 1px; fill: white; stroke-dasharray: 10000, 1;"/></marker><marker id="marker-0epmzt9bi7kz73zqi7yqwx8nu" viewBox="0 0 20 20" refX="6" refY="6" markerWidth="20" markerHeight="20" orient="auto"><circle cx="6" cy="6" r="3.5" style="stroke-linecap: round; stroke-linejoin: round; stroke: rgb(34, 36, 42); stroke-width: 1px; fill: white; stroke-dasharray: 10000, 1;"/></marker></defs><path data-corner-radius="5" style="fill: none; stroke-linecap: round; stroke-linejoin: round; stroke: rgb(34, 36, 42); stroke-width: 1.5px; marker-end: url('#marker-555fmvp7z08flybiln6jwmjc9'); marker-start: url('#marker-0epmzt9bi7kz73zqi7yqwx8nu'); stroke-dasharray: 10, 11;" d="M880,5L880,182"/></g><path d="M880,5L880,182" class="djs-hit djs-hit-stroke" style="fill: none; stroke-opacity: 0; stroke: white; stroke-width: 15px;"/><rect x="875" y="0" rx="4" width="10" height="187" class="djs-outline" style="fill: none;"/></g></g><g class="djs-group"><g class="djs-element djs-shape" data-element-id="TextAnnotation_1v0rgj6" style="display: block;" transform="matrix(1 0 0 1 450 70)"><g class="djs-visual"><rect x="0" y="0" width="100" height="30" rx="0" ry="0" style="stroke-linecap: round; stroke-linejoin: round; stroke: none; stroke-width: 2px; fill: none;"/><path d="m 0, 0 m 10,0 l -10,0 l 0,30 l 10,0" style="fill: none; stroke-linecap: round; stroke-linejoin: round; stroke: rgb(34, 36, 42); stroke-width: 2px;"/><text lineHeight="1.2" class="djs-label" style="font-family: Arial, sans-serif; font-size: 12px; font-weight: normal; fill: rgb(34, 36, 42);"><tspan x="7" y="17.799999999999997">Enviar a lista</tspan></text></g><rect class="djs-hit djs-hit-all" x="0" y="0" width="100" height="30" style="fill: none; stroke-opacity: 0; stroke: white; stroke-width: 15px;"/><rect x="-5" y="-5" rx="4" width="110" height="40" class="djs-outline" style="fill: none;"/></g></g><g class="djs-group"><g class="djs-element djs-shape" data-element-id="TextAnnotation_0vmukfh" style="display: block;" transform="matrix(1 0 0 1 910 -60)"><g class="djs-visual"><rect x="0" y="0" width="100" height="30" rx="0" ry="0" style="stroke-linecap: round; stroke-linejoin: round; stroke: none; stroke-width: 2px; fill: none;"/><path d="m 0, 0 m 10,0 l -10,0 l 0,30 l 10,0" style="fill: none; stroke-linecap: round; stroke-linejoin: round; stroke: rgb(34, 36, 42); stroke-width: 2px;"/><text lineHeight="1.2" class="djs-label" style="font-family: Arial, sans-serif; font-size: 12px; font-weight: normal; fill: rgb(34, 36, 42);"><tspan x="7" y="17.799999999999997">Enviar a fatura</tspan></text></g><rect class="djs-hit djs-hit-all" x="0" y="0" width="100" height="30" style="fill: none; stroke-opacity: 0; stroke: white; stroke-width: 15px;"/><rect x="-5" y="-5" rx="4" width="110" height="40" class="djs-outline" style="fill: none;"/></g></g><g class="djs-group"><g class="djs-element djs-shape" data-element-id="TextAnnotation_1kpne44" style="display: block;" transform="matrix(1 0 0 1 1000 -200)"><g class="djs-visual"><rect x="0" y="0" width="100" height="41" rx="0" ry="0" style="stroke-linecap: round; stroke-linejoin: round; stroke: none; stroke-width: 2px; fill: none;"/><path d="m 0, 0 m 10,0 l -10,0 l 0,41 l 10,0" style="fill: none; stroke-linecap: round; stroke-linejoin: round; stroke: rgb(34, 36, 42); stroke-width: 2px;"/><text lineHeight="1.2" class="djs-label" style="font-family: Arial, sans-serif; font-size: 12px; font-weight: normal; fill: rgb(34, 36, 42);"><tspan x="7" y="17.799999999999997">Se o pedido foi</tspan><tspan x="7" y="32.199999999999996">pago</tspan></text></g><rect class="djs-hit djs-hit-all" x="0" y="0" width="100" height="41" style="fill: none; stroke-opacity: 0; stroke: white; stroke-width: 15px;"/><rect x="-5" y="-5" rx="4" width="110" height="51" class="djs-outline" style="fill: none;"/></g></g></svg>